<svg width="358" height="358" xmlns="http://www.w3.org/2000/svg" xmlns:xlink="http://www.w3.org/1999/xlink" overflow="hidden"><defs><clipPath id="clip0"><rect x="150" y="217" width="358" height="358"/></clipPath></defs><g clip-path="url(#clip0)" transform="translate(-150 -217)"><path d="M329 217C427.523 217 508 297.477 508 396 508 494.523 427.523 575 329 575 230.477 575 150 494.523 150 396 150 297.477 230.477 217 329 217M329 224.052C234.418 224.052 157.052 301.418 157.052 396 157.052 490.582 234.211 567.74 328.793 567.74 423.374 567.74 500.533 490.582 500.533 396 500.74 301.418 423.582 224.052 329 224.052" fill="#003F88"/><path d="M266.153 472.329C254.952 462.995 245.826 451.38 239.604 438.105 233.589 425.246 230.27 411.141 230.27 396 230.063 341.45 274.45 297.063 329 297.063 383.55 297.063 427.937 341.45 427.937 396 427.937 410.934 424.619 425.246 418.604 438.105 412.381 451.38 403.255 462.995 392.054 472.329L389.773 469.633C400.559 460.714 409.477 449.513 415.492 436.654 421.3 424.416 424.619 410.519 424.619 396 424.619 343.524 381.891 300.589 329.207 300.589 276.731 300.589 233.796 343.524 233.796 396 233.796 410.519 237.115 424.209 242.922 436.654 248.937 449.513 257.856 460.714 268.642 469.633L266.153 472.329Z" fill="#003F88"/><path d="M175.72 455.736 168.875 437.691 172.608 436.239 203.513 441.009 198.95 428.357 202.476 427.112 208.699 443.706 204.965 444.95 174.06 440.18 179.453 454.491Z" fill="#003F88" fill-rule="evenodd"/><path d="M187.542 480.418 185.676 476.685 200.195 469.218 195.632 460.299 181.112 467.766 179.246 464.24 210.151 448.269 212.017 451.795 198.95 458.64 203.721 467.559 216.788 460.714 218.655 464.447Z" fill="#003F88" fill-rule="evenodd"/><path d="M202.269 500.123 191.276 484.567 220.314 466.521 230.892 481.248 227.574 483.322 219.692 472.122 210.565 477.722 218.032 487.885 214.714 489.959 207.247 479.589 196.876 486.226 205.38 498.049Z" fill="#003F88" fill-rule="evenodd"/><path d="M226.951 524.391 223.425 521.279 244.789 494.937 248.523 498.049Z" fill="#003F88" fill-rule="evenodd"/><path d="M243.752 536.006 248.108 526.672 242.715 522.731 234.833 530.406 231.1 527.502 256.197 502.612 261.175 505.723 247.9 538.495 243.752 536.006ZM250.182 522.109 255.367 510.079 254.952 509.664 245.826 518.998 250.182 522.109Z" fill="#003F88" fill-rule="evenodd"/><path d="M268.849 548.243 264.286 545.962 266.983 521.694 257.027 542.228 252.464 540.154 268.227 508.834 272.375 510.701 270.509 533.724 280.672 514.849 284.613 516.301Z" fill="#003F88" fill-rule="evenodd"/><path d="M292.287 555.088 289.384 554.051 289.591 551.355C288.969 551.977 287.932 552.392 286.895 552.392 285.857 552.599 284.613 552.392 283.368 552.184 280.879 551.355 279.22 549.488 277.976 546.584 276.731 543.68 277.146 539.324 278.598 534.139 280.465 528.331 282.539 524.391 285.235 522.109 287.932 519.827 291.873 518.583 295.191 519.62 298.925 520.864 301.414 525.428 300.377 531.857L295.813 531.443C296.643 528.746 296.228 524.391 293.532 523.561 291.458 522.939 288.969 523.561 287.309 525.22 285.857 526.879 284.198 530.198 282.746 534.969 281.294 539.532 280.879 542.851 281.502 544.925 282.124 546.999 283.161 548.243 284.613 548.866 286.065 549.28 287.517 549.073 288.761 548.243 290.006 547.414 291.043 545.754 291.665 543.265L292.287 541.191 286.895 539.532 287.932 536.006 296.643 538.91 292.287 555.088Z" fill="#003F88" fill-rule="evenodd"/><path d="M338.956 547.414C338.956 550.525 337.919 553.014 336.467 554.881 334.808 556.747 332.526 557.577 329.207 557.37 325.889 557.162 323.607 556.333 322.155 554.258 320.703 552.392 320.081 549.903 320.081 546.791L320.911 522.939 325.059 523.146 324.229 546.999C324.229 549.28 324.644 550.94 325.474 551.977 326.511 553.014 327.755 553.636 329.207 553.636 330.867 553.636 332.111 553.221 333.148 552.184 334.185 551.147 334.6 549.488 334.808 547.414L335.637 523.561 339.786 523.768 338.956 547.414Z" fill="#003F88" fill-rule="evenodd"/><path d="M362.809 553.844 359.075 554.466 347.253 531.65 349.119 556.125 344.556 556.747 341.86 522.524 347.045 521.901 356.794 537.873 354.927 520.864 358.66 520.242Z" fill="#003F88" fill-rule="evenodd"/><path d="M375.461 550.318 371.105 551.562 361.979 519.205 366.335 517.753Z" fill="#003F88" fill-rule="evenodd"/><path d="M387.491 509.249 392.884 544.925 388.528 546.999 369.654 516.716 373.802 515.057 387.076 535.591 383.343 510.908Z" fill="#003F88" fill-rule="evenodd"/><path d="M422.545 529.369 406.574 538.08 389.151 508.212 404.292 499.915 406.366 503.234 394.751 509.664 400.144 518.79 410.722 513.19 412.796 516.301 402.01 522.109 408.233 532.895 420.678 526.05Z" fill="#003F88" fill-rule="evenodd"/><path d="M440.797 516.716 437.271 519.827 424.826 509.664 421.715 512.568 430.012 523.976 426.486 527.709 405.951 498.878 412.589 494.108C414.663 492.656 417.359 491.619 419.848 491.826 426.278 492.656 428.974 496.804 428.767 501.99 428.767 503.649 428.56 505.101 427.937 506.76L440.797 516.716ZM418.604 496.389C415.907 495.767 414.041 497.634 411.966 499.086L418.811 508.005C420.885 506.553 421.922 506.138 423.374 503.441 424.204 500.33 422.752 497.426 418.604 496.389" fill="#003F88" fill-rule="evenodd"/><path d="M451.79 488.922C458.842 493.278 457.183 505.516 447.849 506.76 445.36 507.175 442.249 506.345 441.005 505.516L442.664 501.782C444.323 502.197 445.775 502.612 447.227 502.404 453.242 501.16 453.035 494.937 449.509 492.241 448.264 491.411 446.605 491.204 444.946 491.411 440.797 491.826 438.101 494.937 433.538 495.145 428.56 495.352 425.034 492.448 424.204 487.47 423.789 484.981 424.411 482.492 425.656 480.418 428.352 476.27 433.952 475.648 437.893 478.137L436.234 481.87C433.952 480.626 430.012 480.626 428.56 483.115 427.73 484.359 427.523 485.604 427.73 486.848 428.145 489.545 430.012 491.204 432.708 490.789 437.064 490.167 440.175 486.641 444.531 486.641 447.227 487.056 449.716 487.678 451.79 488.922" fill="#003F88" fill-rule="evenodd"/><path d="M466.932 484.359 464.443 487.678 434.99 469.01 437.479 465.899Z" fill="#003F88" fill-rule="evenodd"/><path d="M451.998 447.232 448.886 453.247 476.68 469.633 474.813 472.951 447.02 456.773 443.701 462.788 440.175 460.714 448.679 445.158Z" fill="#003F88" fill-rule="evenodd"/><path d="M457.183 424.209 474.191 439.35 485.392 444.12 484.147 448.061 473.569 443.913 449.509 443.291 450.546 439.557 467.554 439.765 455.524 428.772Z" fill="#003F88" fill-rule="evenodd"/><path d="M224.462 509.042C221.351 511.946 218.655 513.605 215.958 513.605 213.262 513.605 210.98 512.568 208.906 510.494 207.039 508.627 206.002 506.345 206.002 503.649 206.002 502.404 206.417 500.952 207.247 499.501L210.98 501.782C210.565 502.404 210.565 503.027 210.565 503.649 210.565 505.101 210.98 506.345 211.81 507.175 213.054 508.419 214.506 509.042 215.958 509.042 217.41 508.834 219.07 507.797 221.144 505.93L238.152 489.13 241.263 492.448 224.462 509.042Z" fill="#003F88" fill-rule="evenodd"/><path d="M282.331 503.234 270.509 495.767 271.546 493.9 275.901 496.597 282.954 484.359 278.598 481.663 279.635 480.003C281.294 481.041 282.746 481.663 283.576 481.663 284.613 481.87 285.443 481.455 286.065 480.418L288.554 482.078 279.013 498.671 283.368 501.367 282.331 503.234ZM317.8 495.767C318.007 494.73 317.592 493.9 316.762 493.278 315.933 492.448 314.688 492.034 312.822 491.826 311.162 491.619 309.918 491.619 308.673 492.034 307.636 492.448 306.806 493.071 306.599 494.108 306.392 494.73 306.599 495.352 307.014 495.974 307.429 496.597 308.051 497.012 309.088 497.634 309.503 497.841 310.125 498.256 310.955 498.671 311.784 499.086 312.614 499.501 313.444 499.708 314.896 499.293 315.725 498.671 316.348 498.049 317.177 497.219 317.592 496.597 317.8 495.767M316.348 506.345C316.555 505.516 316.348 504.686 315.933 504.271 315.518 503.649 314.688 503.027 313.236 502.197 312.822 501.99 312.199 501.575 311.37 501.367 310.54 500.952 309.71 500.745 308.673 500.33 307.429 500.745 306.392 501.16 305.562 501.782 304.732 502.404 304.318 503.234 304.11 504.271 303.903 505.516 304.318 506.76 305.355 507.59 306.392 508.627 307.844 509.249 309.503 509.457 311.37 509.664 312.822 509.457 314.066 509.042 315.311 508.419 315.933 507.59 316.348 506.345M308.881 511.531C307.221 511.323 305.769 510.908 304.525 510.494 303.28 510.079 302.243 509.457 301.414 508.627 300.584 508.005 299.962 507.175 299.754 506.345 299.547 505.516 299.34 504.686 299.547 503.856 299.754 502.819 300.377 501.782 301.621 500.952 302.658 500.123 304.318 499.501 306.184 499.293L306.184 499.293C304.732 498.464 303.695 497.634 303.073 496.804 302.451 495.974 302.243 494.937 302.451 493.9 302.658 492.241 303.903 491.204 305.977 490.374 308.051 489.545 310.54 489.337 313.444 489.752 316.348 490.167 318.629 490.997 320.289 492.241 321.948 493.486 322.57 494.937 322.155 496.389 321.948 497.426 321.326 498.256 320.289 499.086 319.251 499.915 317.8 500.538 316.14 500.745L316.14 500.745C318.007 501.575 319.251 502.404 320.081 503.441 320.911 504.479 321.118 505.516 320.911 506.76 320.496 508.627 319.251 509.871 316.97 510.908 314.481 511.738 311.992 511.946 308.881 511.531M350.156 498.464C350.156 497.012 349.949 495.767 349.534 494.937 349.119 494.108 348.497 493.278 347.875 492.863 347.253 492.448 346.63 492.034 346.008 491.826 345.386 491.619 344.556 491.619 343.934 491.619 342.067 491.619 340.823 492.034 339.786 492.863 338.749 493.693 338.126 494.937 338.126 496.597 338.126 497.426 338.334 498.256 338.541 498.878 338.956 499.501 339.371 499.915 340.2 500.33 340.823 500.538 341.445 500.745 342.067 500.952 342.689 501.16 343.519 501.16 344.349 501.16 345.178 501.16 346.216 501.16 347.253 500.745 348.29 500.538 349.327 500.33 349.949 499.915 349.949 499.708 349.949 499.501 349.949 499.293 350.156 499.086 350.156 498.878 350.156 498.464M333.563 496.804C333.563 495.767 333.771 494.73 334.393 493.693 335.015 492.863 335.637 492.034 336.674 491.411 337.504 490.789 338.749 490.374 339.993 489.959 341.238 489.545 342.482 489.337 343.934 489.337 345.386 489.337 346.838 489.545 347.875 489.752 349.119 490.167 350.156 490.582 350.986 491.204 352.023 492.034 352.853 493.071 353.475 494.315 354.097 495.56 354.305 497.219 354.305 499.086 354.305 500.952 354.097 502.612 353.475 504.064 352.853 505.723 352.023 506.968 350.779 508.005 349.534 509.042 348.082 509.871 346.216 510.494 344.556 511.116 342.275 511.323 339.786 511.323 339.163 511.323 338.541 511.323 337.919 511.323 337.297 511.323 336.674 511.116 336.052 511.116L336.052 508.419 336.674 508.419C337.089 508.627 337.504 508.627 338.334 508.834 339.163 509.042 339.786 509.042 340.615 509.042 343.519 509.042 345.593 508.419 347.253 507.175 348.912 505.93 349.742 504.271 349.949 501.782 348.705 502.404 347.667 502.612 346.63 503.027 345.593 503.234 344.556 503.441 343.312 503.441 342.067 503.441 341.03 503.441 339.993 503.234 338.956 503.027 338.126 502.819 337.089 502.197 335.845 501.575 335.015 500.952 334.393 499.915 333.978 499.086 333.563 498.049 333.563 496.804M380.232 478.344 379.402 500.538 376.083 502.612 376.291 481.663 363.431 487.885 362.394 485.396 378.572 476.892 380.232 478.344Z" fill="#003F88" fill-rule="evenodd"/><path d="M387.284 299.759C384.587 298.514 386.454 298.1 386.662 295.611 386.869 293.536 385.417 291.048 385.832 289.596 386.869 285.655 392.054 287.107 394.958 289.181 395.373 289.596 395.995 290.633 396.203 291.462 397.032 293.951 398.07 297.27 395.373 298.929 393.092 300.381 389.565 300.796 387.284 299.759" fill="#003F88" fill-rule="evenodd"/><path d="M357.209 287.936C357.209 287.936 357.001 287.729 357.001 287.729 357.001 287.521 357.209 287.107 357.209 286.899 358.038 286.692 366.75 283.788 366.75 283.581 369.446 282.336 371.728 280.884 372.972 278.395 367.165 278.81 361.149 281.506 355.549 280.469 353.06 279.225 351.816 277.358 350.156 276.114 350.156 275.906 350.156 275.906 350.156 275.906 347.667 273.21 348.082 270.721 351.608 270.513 356.794 273.21 366.335 271.136 371.935 270.513 373.18 270.306 376.913 269.891 378.158 269.061 381.269 262.009 382.099 254.542 384.38 247.698 387.491 243.134 389.773 247.283 392.262 250.601 392.262 251.016 392.884 251.638 393.299 252.883 393.299 252.883 393.506 252.883 393.506 252.883 394.336 255.372 394.543 256.409 391.847 257.861 389.565 260.972 388.114 264.498 387.284 268.647 391.225 269.061 394.336 266.365 398.692 267.195 399.314 269.476 398.692 271.136 396.41 272.38 392.884 273.21 388.943 273.625 385.002 274.454 383.343 277.98 380.647 282.129 377.328 284.41 376.913 284.825 374.632 286.07 374.009 286.277 371.313 287.107 368.824 288.144 365.92 288.351 358.66 288.351 358.66 287.936 357.209 287.936" fill="#003F88" fill-rule="evenodd"/><path d="M270.094 313.448C266.983 313.241 263.249 310.959 260.968 309.508 260.968 308.678 260.968 307.848 260.968 307.019 265.531 299.759 269.886 292.914 273.413 285.032 274.035 281.714 275.279 277.98 276.109 274.662 276.109 274.662 276.316 274.454 276.316 274.454 276.316 274.247 276.316 274.247 276.109 274.247 277.146 272.38 277.768 271.758 280.05 273.21 280.879 274.869 278.391 277.98 278.183 280.054 278.183 283.581 277.976 287.314 277.768 291.048 277.561 291.67 277.561 291.67 276.731 295.818 275.487 297.892 274.657 302.248 274.45 304.53 272.998 306.396 273.413 310.337 271.546 312.619 271.131 312.826 270.509 313.034 270.094 313.448" fill="#003F88" fill-rule="evenodd"/><path d="M298.717 276.528C294.776 277.98 292.702 275.906 289.591 274.454 289.176 273.417 289.591 272.587 289.384 271.758 290.213 271.136 290.213 271.136 290.628 270.513 292.08 269.684 292.702 269.476 294.569 268.647 296.643 267.195 300.791 260.972 303.488 262.009 305.769 266.572 302.451 273.417 298.717 276.528" fill="#003F88" fill-rule="evenodd"/><path d="M265.738 280.677C263.664 280.054 260.968 274.039 260.138 272.173 259.93 268.439 263.249 266.987 266.983 268.024 270.301 270.098 272.375 270.721 271.338 275.076 269.886 278.603 268.642 279.225 265.738 280.677" fill="#003F88" fill-rule="evenodd"/><path d="M293.532 266.365C292.495 264.706 293.324 259.728 292.287 259.105 291.458 259.728 290.628 260.35 289.591 260.765 286.687 260.557 283.161 258.691 283.161 256.202 284.198 253.505 283.576 254.335 286.272 253.09 288.346 251.016 290.628 248.735 292.702 246.66 296.851 244.171 299.754 245.831 301.621 249.979 302.036 253.09 300.999 255.994 299.962 258.898 298.095 261.18 296.643 263.254 294.984 265.535 294.776 265.743 294.154 266.158 293.532 266.365" fill="#003F88" fill-rule="evenodd"/><path d="M264.701 263.461C263.457 263.046 263.664 262.424 263.871 261.387 263.042 259.52 261.382 258.483 260.553 256.824 259.93 253.505 258.893 252.468 260.76 249.979 263.249 249.979 271.753 251.016 271.546 255.579 270.716 258.898 267.397 262.009 264.701 263.461" fill="#003F88" fill-rule="evenodd"/><path d="M220.729 381.481C216.995 383.97 208.076 382.311 209.321 376.918 208.906 376.503 208.491 375.466 208.699 374.844 208.491 374.844 208.491 374.636 208.491 374.636 207.454 369.036 204.55 363.643 202.891 358.458 202.061 356.798 201.024 355.554 201.647 353.687 202.891 353.48 204.343 354.724 205.38 355.761 206.002 355.554 206.625 354.309 206.832 353.48 206.417 349.746 206.832 345.598 206.21 341.657 205.173 340.827 204.343 339.998 203.513 339.168 202.684 341.035 200.402 347.257 198.328 343.939 198.95 341.45 199.365 337.094 197.913 334.605 196.046 332.531 193.35 331.286 192.52 329.005 192.935 325.893 197.498 325.271 200.402 326.516 202.684 326.723 202.476 322.575 205.173 329.419 205.173 330.457 206.21 331.286 207.454 331.908 207.662 331.701 207.869 331.494 208.076 331.079 208.076 328.175 207.869 324.856 208.284 321.745 205.587 319.049 203.306 316.767 201.647 313.241 201.647 309.922 205.38 308.263 208.491 307.226 209.528 305.567 209.528 304.115 209.528 301.833 209.736 301.211 209.736 301.211 210.565 299.966 211.603 299.966 212.64 300.381 213.884 301.211 216.373 304.53 211.188 314.486 216.166 315.315 217.203 313.656 215.751 311.789 214.921 310.545 215.129 308.056 219.07 304.944 221.766 304.115 225.707 303.7 225.499 305.981 225.499 309.508 225.707 309.922 225.914 310.545 226.122 310.959 231.1 314.693 231.1 314.693 238.152 319.464 239.396 321.538 240.019 322.782 240.641 325.271 240.641 325.271 240.848 325.271 240.848 325.479 240.848 325.686 240.641 325.686 240.641 325.686 241.678 327.553 241.678 330.871 239.189 331.286 233.381 327.345 227.781 322.99 222.181 319.464 222.181 319.671 222.181 319.671 221.973 319.878 224.462 322.16 227.781 328.59 227.988 332.116 226.536 334.397 224.048 335.435 221.766 334.812 220.521 333.568 220.521 332.946 220.521 332.323 218.862 329.419 213.884 326.516 211.395 324.856 210.358 326.723 212.432 332.531 213.054 335.02 213.054 336.472 213.262 337.924 213.262 339.168 214.921 341.242 216.788 343.109 218.655 345.391 219.277 346.635 220.107 347.879 220.729 348.917 220.729 349.124 220.521 349.124 220.521 349.124 221.351 350.991 223.218 356.176 219.692 356.176 219.277 355.969 219.07 355.761 218.862 355.554 217.825 352.857 215.751 349.954 213.469 348.294 212.64 350.991 213.677 353.895 212.225 356.176 211.188 357.213 209.736 358.25 208.906 358.873 208.699 358.873 208.699 358.665 208.699 358.665 208.076 358.873 207.247 359.08 207.039 359.495 208.076 360.739 209.114 361.984 209.943 363.228 213.054 368.828 216.581 373.599 220.729 378.577 221.144 380.029 221.144 380.444 220.729 381.481" fill="#003F88" fill-rule="evenodd"/><path d="M196.461 358.458C195.009 358.458 194.18 356.798 193.143 355.969 189.202 354.724 186.09 354.102 184.846 350.161 185.053 349.746 185.261 349.539 185.468 349.124 187.542 348.294 191.483 347.879 193.972 347.672 198.95 348.709 197.291 354.724 196.461 358.458" fill="#003F88" fill-rule="evenodd"/><path d="M186.09 346.635C185.261 347.257 185.053 347.05 184.638 347.05 184.016 346.22 183.809 345.391 182.979 344.976 178.623 344.768 174.06 341.657 174.89 337.094 175.72 336.264 176.549 336.679 178.209 337.301 181.942 336.472 187.542 334.19 187.75 340.205 187.335 342.487 186.713 344.561 186.09 346.635" fill="#003F88" fill-rule="evenodd"/><path d="M413.003 352.235 369.446 352.235C356.794 352.235 350.156 364.68 345.386 375.881L338.126 359.287 350.364 354.724C343.104 347.879 320.703 344.146 317.8 354.517L312.407 375.881C308.258 366.34 302.243 352.235 288.969 352.235L244.789 352.235C250.597 362.399 255.99 366.132 276.316 365.095L279.013 372.147 256.819 372.355C263.457 384.385 267.19 385.007 285.028 384.385L288.761 392.681 271.338 393.304C275.072 401.808 279.013 405.541 294.154 404.919L297.058 412.386 283.161 412.386C288.346 421.097 291.043 425.038 302.036 424.001L304.94 432.09 295.191 432.09C299.34 441.424 304.318 441.839 310.125 442.669 315.518 443.498 316.14 453.454 309.918 456.773L328.585 487.263 347.253 456.773C341.03 453.662 341.86 443.498 347.045 442.669 353.06 441.632 357.831 441.424 361.979 432.09L352.438 432.09 355.342 424.001C366.335 425.038 369.031 421.097 374.217 412.386L360.32 412.386 363.224 404.919C378.158 405.541 382.306 402.015 386.039 393.304L368.616 392.681 372.35 384.385C390.188 384.8 394.129 384.385 400.559 372.147L378.365 372.147 381.061 365.095C401.803 366.132 407.196 362.399 413.003 352.235" fill="#003F88"/><path d="M479.169 331.494 479.377 331.079C479.999 329.419 479.999 328.797 479.791 328.59 479.584 328.175 478.962 327.968 477.925 327.76 477.717 327.76 477.302 327.553 476.888 327.553L476.265 327.553 476.058 327.138C475.851 326.93 475.643 326.723 475.436 326.516L474.606 326.308 474.399 326.308 475.436 325.479C476.265 324.856 477.095 324.649 478.132 324.234L478.132 324.027 478.547 324.234C479.999 322.99 481.036 320.915 481.243 318.841 480.828 318.219 479.999 317.804 478.754 317.804 477.302 317.804 475.436 318.426 473.776 318.841 472.739 319.256 471.495 319.464 470.458 319.671L470.043 319.464C467.346 318.219 467.139 318.012 461.331 315.108 460.917 315.315 460.502 315.73 460.294 316.352 459.879 317.182 460.087 318.219 460.502 319.049L461.124 319.464 461.124 319.464 461.124 319.464 459.672 320.293C459.257 320.501 459.257 320.501 459.257 320.501L459.257 320.501 459.05 320.708C459.05 320.915 459.257 321.123 459.465 321.538L459.465 322.16C459.465 322.782 459.257 322.99 458.842 323.404L458.635 324.027 458.635 324.027 458.635 324.027 457.805 323.404C456.768 322.575 456.561 322.367 455.731 321.745 455.524 321.745 455.316 321.745 455.109 321.745 454.487 321.745 454.072 321.952 453.657 322.367 453.45 322.782 453.45 323.197 453.657 323.819L453.657 324.234C453.45 325.064 452.827 326.516 450.131 326.516L448.886 326.516C448.679 326.516 448.472 326.516 448.057 326.723 448.057 328.382 448.886 328.59 450.753 329.005 451.375 329.212 452.205 329.212 453.242 329.419 453.45 329.419 453.657 329.419 453.864 329.419 454.279 329.419 454.487 329.627 454.901 329.834L456.353 330.457 456.768 330.664 456.976 330.871 455.316 331.701C454.694 332.116 454.279 332.323 453.657 332.946 453.45 333.36 453.242 333.983 452.827 334.397L452.827 334.812 452.205 334.605C450.961 334.397 449.716 333.983 448.472 333.568L446.605 333.153C443.286 332.323 438.93 331.079 434.99 330.457 433.952 330.042 433.123 330.042 432.293 329.834L430.426 329.627 430.426 330.249C430.841 330.664 431.464 331.079 432.501 331.701L432.708 332.116C433.33 333.36 434.16 335.02 436.234 336.264 437.686 336.472 439.138 336.679 440.797 336.886 445.775 337.509 450.961 338.131 454.901 341.035L455.939 341.657 456.146 341.657 456.146 341.657 456.146 341.657 454.694 342.487C454.279 342.694 454.072 342.901 453.45 343.316L453.035 343.316C448.264 342.279 448.264 342.279 446.605 341.657 444.946 340.62 444.116 340.205 443.079 340.205 442.457 340.205 441.627 340.413 440.175 341.242 440.175 341.242 439.968 341.242 439.968 341.45L439.968 341.45C439.968 341.45 439.968 341.45 439.76 341.45L439.345 341.242C438.723 341.035 438.723 341.035 437.271 340.827 436.027 340.413 434.575 339.998 433.123 339.375 428.974 337.924 424.619 336.679 421.093 334.19 420.056 333.36 419.433 332.531 418.811 331.908 418.604 331.701 418.396 331.494 418.396 331.494 418.396 331.494 418.396 331.494 418.396 331.494L417.981 331.079C417.774 331.079 417.359 331.494 416.53 332.323 415.7 334.605 417.981 340.205 419.848 341.864 421.093 342.487 422.545 342.694 424.204 343.109 426.693 343.524 429.389 344.146 431.878 346.22L432.501 346.428 432.501 346.428 432.501 346.428 431.878 347.257C431.049 348.294 430.012 349.124 428.974 350.161L428.56 350.576C428.145 350.783 427.937 351.198 427.73 351.406L427.315 351.406C426.9 351.406 426.693 351.406 426.278 351.613 424.411 351.613 422.752 350.783 421.508 349.954 421.093 349.746 420.678 349.539 419.848 349.331L419.641 349.746C421.508 353.065 424.204 356.176 427.73 359.08L427.937 359.495C428.352 359.702 428.767 359.91 429.182 359.91L429.182 359.91C431.671 359.91 434.367 356.384 436.441 353.895 436.856 353.272 437.271 352.857 437.686 352.443L438.101 352.028C439.968 350.576 440.175 350.576 439.968 350.576L440.382 350.783C442.042 351.198 443.079 351.82 444.531 352.65 445.983 352.028 447.642 350.576 447.435 348.917L446.812 348.294C445.983 347.465 444.946 346.635 444.116 345.805L443.701 345.805 443.908 344.976C444.323 344.146 444.738 343.731 445.36 343.109L445.36 342.694 445.983 342.901C448.679 343.524 451.168 344.353 454.072 345.183L456.561 346.013 457.183 346.428C458.635 347.465 459.672 348.294 461.331 348.294 461.539 348.294 461.746 348.294 462.368 348.087 464.028 346.428 464.857 345.391 465.48 344.146L465.48 344.146C465.48 344.146 465.48 344.146 465.48 344.146 465.065 343.524 464.857 343.109 464.65 343.109L465.065 342.487C465.272 342.279 465.48 342.072 465.895 341.864 470.25 340.413 475.021 338.753 478.547 337.509 480.621 336.264 480.828 336.057 480.206 334.19 479.584 332.323 479.584 332.116 479.169 331.494M462.161 333.983 462.783 333.36C463.82 332.531 464.235 332.116 464.235 331.494 464.235 331.286 464.028 331.079 463.613 330.871L463.406 330.871C463.198 330.871 463.198 330.871 462.991 330.871 462.161 330.871 461.746 330.457 461.539 330.249L461.124 330.042 461.124 329.627 461.331 328.797 461.124 328.797 462.161 328.59C465.272 327.553 465.272 327.553 465.895 327.138L466.102 326.723 466.724 327.345C467.346 327.968 469.628 330.042 470.043 332.531L469.628 332.946C467.969 335.02 465.687 335.435 463.406 335.435L462.783 335.642 462.576 334.605 462.161 333.983 462.161 333.983Z" fill="#003F88"/><path d="M443.701 326.308C442.664 326.308 441.834 326.101 441.005 325.479 440.382 323.404 442.042 321.123 443.079 319.464 443.494 318.841 443.701 318.426 443.908 318.012L444.116 317.597 444.531 316.975C444.946 316.145 445.36 315.315 445.775 314.278 445.983 313.863 445.983 313.241 446.19 312.826 446.812 310.13 447.435 308.47 448.679 307.848 449.716 308.056 450.338 308.263 450.546 308.47 450.753 308.885 450.753 309.508 450.546 310.337L450.338 310.752C450.546 311.167 450.546 311.582 450.546 311.997 450.753 313.656 450.961 315.315 450.753 316.767L450.753 317.389C450.753 318.012 450.546 318.426 450.338 319.049 449.716 320.915 449.094 323.197 447.642 324.441L447.02 325.064 446.605 325.271C445.775 326.101 444.738 326.308 443.701 326.308L443.701 326.308Z" fill="#003F88"/><path d="M443.701 326.308 443.701 326.308C444.738 326.308 445.775 325.893 446.812 325.271L447.227 325.064 447.849 324.441C449.301 323.197 449.924 320.915 450.546 319.049 450.753 318.634 450.961 318.012 450.961 317.389L450.961 316.767C451.168 315.108 450.961 313.448 450.753 311.997 450.753 311.582 450.546 311.167 450.546 310.752L450.546 310.752 450.753 310.337C450.961 309.3 450.961 308.885 450.753 308.47 450.546 308.056 449.924 308.056 449.094 307.848 447.849 308.263 447.227 309.922 446.605 312.619 446.397 313.241 446.397 313.656 446.19 314.278 445.775 315.315 445.36 316.145 444.946 316.975L444.531 317.597 444.323 318.012C444.116 318.426 443.701 318.841 443.494 319.464 442.457 321.123 440.797 323.197 441.212 325.271 441.834 326.101 442.664 326.308 443.701 326.308" fill="#003F88"/><path d="M433.952 324.027C433.538 324.027 432.915 323.819 431.671 322.99 430.219 319.671 435.404 315.937 436.027 315.523 436.856 315.73 437.271 316.145 437.686 316.975 438.308 318.634 437.893 321.123 436.649 322.367 435.404 323.404 434.575 324.027 433.952 324.027L433.952 324.027Z" fill="#003F88"/><path d="M433.952 323.819 433.952 323.819C434.575 323.819 435.197 323.404 436.856 322.367 437.893 321.123 438.308 318.634 437.893 316.975 437.686 316.145 437.064 315.73 436.441 315.523 435.819 315.937 430.634 319.671 432.086 322.782 432.915 323.612 433.538 323.819 433.952 323.819" fill="#003F88"/></g></svg>